<svg class="logo" xmlns="http://www.w3.org/2000/svg" viewBox="0 0 456.14 420.75">
  <defs>
    <style>
      .cls-1{fill:url(#linear-gradient);}
    </style>
    <linearGradient id="linear-gradient" x1="228.07" y1="420.75" x2="228.07" gradientUnits="userSpaceOnUse">
      <stop offset="0" stop-color="#09092b"/>
      <stop offset=".22" stop-color="#0c0c35"/>
      <stop offset=".62" stop-color="#111042"/>
      <stop offset="1" stop-color="#121146"/>
    </linearGradient>
  </defs>
  <path class="cls-1" d="M456.14 0l-14 26.8-10.26 2.85 8-16.25L287.1 56.16l4.85-10zm-86.37 135.4L228.66 384 86.42 135.4l-7.7-1.4 31.36 55.59-18-8 136.58 239.16 135.41-239.17-18 8 31.4-55.58zM162.43 54.26l-4.85-10L0 0l15.34 28.79 10.26 2.85-9.35-18.24zm142.13 22.42L423.65 36.2l-104.19 74.91a1.14 1.14 0 0 0 .66 2.07l48.5.13-76.28 29.16a1.14 1.14 0 0 0-.11 2.08l14.42 7.33a.57.57 0 0 1 0 1l-76.36 41.9a3.42 3.42 0 0 1-3.31 0l-75.18-41.9a.57.57 0 0 1 0-1l14.42-7.33a1.14 1.14 0 0 0-.11-2.08l-82-29.16 49.64-.13a1.14 1.14 0 0 0 .66-2.07L30.26 36.2l119.08 40.48a1.14 1.14 0 0 0 1.5-1.08v-6.19L195 98.63l-30.9 32.21 39.9-8.69 4.28 17.1 12.54-20-10.55 8.84-1.81-11a1.14 1.14 0 0 0-1.29-.94l-26.68 4 21.36-21.23a1.71 1.71 0 0 0-.22-2.61L164.1 69.84l32.64 8.31a1.14 1.14 0 0 0 1.26-1.52l-5.7-13.35L208 73.36a1.14 1.14 0 0 0 1.7-1.32L188 7.13l39.2 57 39.8-57L245.37 72a1.14 1.14 0 0 0 1.7 1.32l15.66-10.08-4.56 12.21a1.14 1.14 0 0 0 1.28 1.55l31.5-6-37.53 25.32a1.71 1.71 0 0 0-.22 2.61l21.36 21.23-26.68-4a1.14 1.14 0 0 0-1.29.94l-1.81 11-10.55-8.84 12.54 20 4.28-17.1 39.91 8.69L260 98.63l43-29.22v6.19a1.14 1.14 0 0 0 1.56 1.08zm-71 27.75a20.87 20.87 0 0 1-5.94-6.65 20.87 20.87 0 0 1-5.94 6.65l6.8 74.31zM267.61 222l41.3 10.36-61.72-36.66-16.32 8.66a4.56 4.56 0 0 1-4.38-.06l-15.21-8.6-61.72 37.2 41.37-10a1.71 1.71 0 0 1 1.94 2.41l-15.8 32.51 34.18-22.07a1.71 1.71 0 0 1 2.59 1l16 66.5L246.18 237a1.71 1.71 0 0 1 2.61-1l33.75 22.46-16.88-34a1.71 1.71 0 0 1 1.95-2.46z"/>
</svg>