<svg class="logo" xmlns="http://www.w3.org/2000/svg" viewBox="0 0 401.2 402.11">
  <defs>
    <style>
      .cls-1{fill:url(#linear-gradient);}
    </style>
    <linearGradient id="linear-gradient" x1="200.6" y1="402.11" x2="200.6" gradientUnits="userSpaceOnUse">
      <stop offset="0" stop-color="#09092b"/>
      <stop offset=".22" stop-color="#0c0c35"/>
      <stop offset=".62" stop-color="#111042"/>
      <stop offset="1" stop-color="#121146"/>
    </linearGradient>
  </defs>
  <path class="cls-1" d="M370.74 253.16a170.74 170.74 0 0 0 28.18-42.5c-6.74 72.85-73 146.28-158.89 164a27.6 27.6 0 0 0 2.75-14.53c74-18.27 129.06-83 130.46-161.49l7.15-3.07a175.48 175.48 0 0 1-9.65 57.59zM200.63 25a173.12 173.12 0 0 1 127.79 55.91l4.65-5.41a181.22 181.22 0 0 0-264.83 0l4.31 5.78A173.11 173.11 0 0 1 200.63 25zM28 199.58l-7.16-3a175.39 175.39 0 0 0 10.23 58.12s-13.4-10.94-30-42.59C15.85 306.85 86.22 345.79 117.54 360c-.57-6.95 3-14.16 3-14.16C64.13 315.88 29.53 263.56 28 199.58zM400.28 55a11.66 11.66 0 0 0-1.06 7 42.89 42.89 0 0 1 .76 9.57c-.08 3.11-1.54 10.24-8.73 12.6-6 2-3.19 6.6-1.06 6.53s6.3-.38 8.12 1c-2.2.38-3.72.46-4.63 1.06a7.56 7.56 0 0 1-2.73 1.12c-1.06.25-2.88 1.16-.76 2.53s2.88.91 2.73 3 1.21.91 2.13 2 2.88 4.33-.68 7.74-5.92 1.06-6.6 6.3.38 5.77-5.09 6.22-6.45 1-7 1.52-.53 1.44 1.37 2.28 3.11 2 5.92 2.73 2.51 4.55 6.07 4.1 8.73-3.11 9.87-5.09-.53 5.16-2.81 7.36-4.63 3.11-5.09 4-2 3.64-4.1 4.1-1.67 2.51-2.43 2.58-.23 3.72 1.67 3 1.37 1.14 3 .76 4.25.38 6-1.59c0 0-1.21 3.49-4.48 4.1s-2.13-.46-4.18.76-1.82 2.28-8.2 1.21-10.78-1.52-15.64-1.14-13.82.15-13.82 4.56 4.86 4.71 8.65 4.71 10.7-1.52 13.82-4.63c1.29.91.15 3.42-1.14 4.86s-1.37 3.95-3.8 4.86-3.34.84-2.81 2.88.61 4.48-2.13 5.09-8 .61-7.29 2.88.83 5.16.38 6.45c-.68-1.14-2.28-3.87-4.4-3s-5.54 4.48-8.81 4.4-7.44-6.07-13.89-5.77-11.84-.3-14.73.38-10.17 1.44-10.17 8 6.45 5.24 6.45 5.24 1.32-3 5.75-3 4.58 2.43 7.54 3.49 6.3 1.82 7.59 3.11 1.75 1.9-.68 1.06a24.16 24.16 0 0 0-8-1c-2.51.08-7.59 3.11-9 4.56s-7.06 4.48-7.9 7.14-.23 4-3.8 5.16a33.36 33.36 0 0 1-17.46.38s.3 2-.68 3-4.78.68-4.63 3.11 1.52 3.49 3.26 3.26 4.86-2.35 7.36-1.82 6.68 3.49 7.67 5.54 1.37 3.64-1 3.49-8.27-1.29-7.59 1.52 3.19 7.44-1.29 8.27-7.74.53-10.32 4.4-3.8 7.82-9 7.82-8.5-3.49-9.64-4.33-5.39-1.06-5.85-1 1.82 2.43 2 3.11-1.37.66-6.68 0c-4.33-.57-3.57 3.07-4.25 4.06s-3.95 2.81-9.64-.61-6.23-4.55-9.87-3.95c-9.64 1-9.49 7.36-21.26 7.36s-15.87-5.09-17.54-6a12.38 12.38 0 0 0-6.76-1.52c-5 0-8 6.15-13.51 5.92s-5.54-3-6.07-3.95-3.25-2.33-5.67-1.27-5.45 0-2-1.37c1.46-.57-1.08-2.9-3.28-2.3S141.41 253 136 253s-8.35-3.95-9.49-6.45-4.24-5.09-6-5.09a7.55 7.55 0 0 1-7.1-3.49c-2.28-3.49.76-3.19.53-5.31s-4.48-2.78-7.21-2-1.52-3.21-.45-4.43 3.34-4.4 7.06-4.18 4.94 3 7.18 2.51 3.53-2.43 3.22-3.72-2-2.35-3.87-3a2.17 2.17 0 0 1-1.44-3.19c.53-.83-3.49.23-9.34.38s-9 .53-13.13-7.44c-1-1.59-5.16-3.72-7.9-6.76s-8.35-5.77-16.47-2.66c-.61-1.59 2-2.35 7.29-4.1s3.42-3.57 7.52-3.49 5.85 3.72 8.65 3.26 3.87-3 3.72-5.62-1.67-8.88-17.23-8.58-17.19 5.47-20.78 5.54-7.08-4.18-10.35-3.49-2.88 1-3.42 2.43-1-6.38-.53-8a2.59 2.59 0 0 0-1.59-.68c-1.14-.15-4.1.46-6.23-1.37s-2.28-3.95-1.44-4.25 1.59-2.2-1-3.34-3.19-1.9-3.42-2.73-3.72-3.34-4.1-6.91.83 1.37 5.31 3 6.76 2.66 9.41 2.35 5.16-1.59 6.3-1.59 2.51-.53 2.58-1.59.46-4.1-1.82-5-7.82-1.44-11.54-1.44-6.91-.68-11.16.15-4.63 1.29-7.52 1.21a10.06 10.06 0 0 1-6.53-2.2c-2.2-.76-2.88.83-5.09-.84s-2.88-3.34-3-4.1 1.06 1.75 5 2.28 3.11-1.37 5.54-1.37 1.52-2.43-.53-3.95-4.63-2-6.07-5.31-4.55-1.29-6.3-6.53-1.82-5.31-1.67-6.3 1.37 2.28 2.73 3.23 4.55 2.77 6.38 2.85 3 .68 4.33-.76a11.46 11.46 0 0 1 5.97-3.39c2.35-.46 3.42-3 4.18-3.11s1.63-3-1.86-2.46-10.59.25-10.06-3.31S12 111.6 10.84 111s-5.62-1.75-5.54-5.62 1.82-4.63 2.88-5.09-.76-2.59 1.44-3.19 3.87-2.66.91-3-3-2-4.1-1.9a21.49 21.49 0 0 0-3.26.38c-.38.15.53-1.67 3.26-1.82s5.09.68 6.15-.3 2.13-2 1.37-3.42-5-2.58-7.14-4.33A14.58 14.58 0 0 1 1.67 70c.51-7 .84-11.54 0-13.29a13.38 13.38 0 0 1-1.61-7.09 18.54 18.54 0 0 1 2.81-7.18c.84-1-.53 3.8.3 6.38S3.7 54.05 6 56s2.51 2.81 4 2 1.52-5.85 1.06-6.83-.68-4.48-1-5.31 3 2.51 3.8 4.93 2.28 8.27 3.19 9.79 5.69 9.57 7.06 11 5.16 5.54 6.07 5.92 1.14.08-.15-2.35a20.82 20.82 0 0 1-2.35-8c0-2 .46-3-.46-3.64s-5.09-4.63-6.3-7.82-2.51-5.31-2.73-7-7.44-5.92-7.29-9.79 2.73-5 2.51-6.76A14.18 14.18 0 0 0 10 26.11c-.91-.61-3.19-3.8-6-4.25.46-1.29 2.35-1.67 3.8-1.67s1.14 2.28 2.28 2.35 3.64-.61 4.33.91.91 6 2.13 6.15 3-.76 2.2-5.31-.61-7 1-8.2.15-3.34 3.57-5.85S27.69 6.83 25.72 0c1.75 1.52 2.35 2.88 2.2 5.54S27.46 11 26 13.36s-2.35 4.48-1.52 5.92 3.19 1.67 3.8 3.87a13.7 13.7 0 0 1 .15 6.3c-.38 1.82-1.52 3.95-.68 5s2 1.9 2 3.11 1.67-.46 2-1.44.3.53.38 1.21.46.61.83 2 .15 3.26 1.21 2.58 2.28-.84 2.28-2.73-1.06-6.91-.15-9.41 3-5.92 5.85-6.53 4.4-.76 4.4-3.8.08-6.45 3.19-7.67 4.93-4 7.82-4-.83.53-1.75 3.49-.76 4.78-5 9.26-3.72 6.45-5.24 11.16-2.88 10-.61 19.89a84.21 84.21 0 0 0 12.11 28.6c6.07 9 24.67 40 92.39 83.89 0 0 19.89 12.75 23.31 14.58s9 4.48 10.48 6.6 1.9 2.44 3 2.43 2.74-.56 2.28-3.42c-.08-.47-.15-1.38-.22-2.56a15.61 15.61 0 0 1 .35-19.79c1-1.06.15-3.73-2.81-6.69s-8.58-8.2-8.73-14.5-2.43-11.16-2.43-13.13-1.59-5.09-1.29-8.12 4.86-3.95 6.91-5.69 3.64-3 3.72-7.29-.46-9 4.86-10.48 9.41-5.24 9.79-7.36 1.9-9.72 1.06-13.66-2.84-5.52-2.74-12.58 3.6-10.78 7.07-12.4c1.73-.8.73 1.3-.11 4.34a11.38 11.38 0 0 0-1 7.29c.53 1.75 2.35 3.49 2.35 4.63s.53 3 2 3.38a11.56 11.56 0 0 1 2.28-4.1c1.48-1.48 2.16-1.48 1.82 2.73s0 12.3 1.59 14.69 4.33 5.58 4.33 9.45-2.51 18-2.51 22.77 2.35 9.22 4.1 9.45c2.88.38 1.21-4.33 1.67-6.53a6.11 6.11 0 0 1 2.66-4c2-1.44 2.2-1 1.54 1.06a17.2 17.2 0 0 0 .35 10.18c1.06 2.62 2.2 5.47 2.2 8.43s-2.85 7.17-4.1 9.45.11 5-4.21 6.38-2.16 2.62-4.78 2.85-4.67.46-8.43-3.42c1.82.8 3.42.8 4.33 0s1-2.39 2.16-3 1.71-3.07.34-5.47-2.39-4.9-2.39-6-1-2.16-1.14-4.55c0 0-2.28 1.94-2.39 3.64a33.29 33.29 0 0 1-.91 5.24 6.55 6.55 0 0 0 0 3.64 9.55 9.55 0 0 1-5.27-8.43c0-6 4.81-14.46 5.5-18.79s-.46-10.36-.34-12.64a7.78 7.78 0 0 0-2.28 3.53c-.8 2.39-1.48 5.47-3.53 5.24s-5.66-2.13-6 .91c-.68 5.47-1.82 2.52-1.82 5.69s2 7.17-2.62 8.77c0 2.16.94 22.21 14.47 29.89a15.63 15.63 0 0 1 9.19 24.64c-2.16 4 1 8.57 3.54 5.49a15.48 15.48 0 0 1 4-3.76c2.38-1.37 2.84-1.46 9.9-5.73 5.48-3.31 47.6-28 81.86-59.87 24.71-22.84 45.27-52.47 45.27-74.35 0-12.07-3.42-16.85-8-22.77s-3.8-6.53-4.18-8a6.07 6.07 0 0 0-3-3.8 17.11 17.11 0 0 1 9.19 3.34 9.46 9.46 0 0 1 3.34 6.53c0 2 .15 3.95 4.33 5.47s5.47 4.93 5.39 9.49.46 7.74 1.59 8.27 3-2.28 3.19-5.16c.76 1.06 1.59 2.43 2.35.83s2.51-2.51 1.75-5.24-2-7.29-.53-9.19 5.54-2.51 4.1-5.54-4.86-7-4.71-10.55a13.78 13.78 0 0 1 2.65-6.8s-1.75 4.33.23 7.06 3.49 3.11 4.48 4.71 1.14 3.41 2.14 4.55 2.2 2.51 1.59 5-1.59 7.82.53 8.81 1.75-3.11 2.13-4.71 2.35-3.8 3.57-3.49 1.75 1.52 2.35-.53 2.51-1.37 3.49-1.06 2.51.84 2.51.84a5.06 5.06 0 0 0-2.51 1.37c-1.52 1.29-3.95 3-4.25 3.8a18.48 18.48 0 0 1-2.43 3.8 3.53 3.53 0 0 0-.15 4.1 6.07 6.07 0 0 1 .83 6.53c-1.44 2.73-2.73 4.48-4.86 5.69S383 51.7 382 53.9s-6.83 9.19-8 10.17c-.46 2.28-.27 7.29-2.2 9.72-1.4 1.75-.57 2.24-1.21 3.19-.52.76.53 1.44 3.34-2s8.73-9.94 9-11.54 2.66-4.55 3.57-9.26 3.8-7 4.55-8.12c.3 1.06-.68 2.58-.84 4.93s-.23 7.67 1.67 7.36a6.16 6.16 0 0 0 5.31-4.48 25.87 25.87 0 0 0 .91-11.31c1.75 2 3 4 3 6a17.9 17.9 0 0 1-.82 6.44zm-194 125s-2.93 0-3.92-4h-3.53c-1 4-3.92 4-3.92 4l5.65 29.78zm-26.74 102.64c2.9-.69 3.64-3 3.81-2.44s1.08 3.47 1.37 2 2.33-3 3.42-3.93.91-2.62 1.48-4.33-.57-2.28-1-2.73-.68-2-2.51-4-5.75-1.71-5.75-1.71c1.08.06.8 2.22 1.94 2.45.3.06-.23 3.59.17 4.67s.51 3.13-1.08 6.49-4.75 4.23-1.85 3.53zm44.7 59.11c4.5 3.87 5.58 7.69 5.3 7.74s-3-.17-1.25.91a4.7 4.7 0 0 1 2.37 4c.15 1.71-1.12 2.11-1.86 2.79s-.28 1.65-.57 3.25-1.37.28-1.94-.06a5 5 0 0 0-2.33-1.08c-1.25-.17-2-.06-1.94.8s1.54 3.3 2.85 3.47a2.06 2.06 0 0 1 1.71 2.45c-.17 1-2.68 3.93-3.76 6a15.2 15.2 0 0 1-6.49 5.47c-1.82.57-2.33-1-2.73-1.11s-1.08-1.68-1.48-1.91a7.26 7.26 0 0 0-1.88-1c-.63-.11-1.31 1-1.71 1.48s-1.25-.74-1.54-1.2a2.94 2.94 0 0 1-.34-1.77 9.09 9.09 0 0 0-1.65-3.93 9.53 9.53 0 0 0-6.78-3.42c-3-.11-4 .63-4 .63 6.83 4.46 3 10.84-1.48 11.06a8.9 8.9 0 0 1-7.74-4.69c-.57-1-2-1-3-1s-2.62-1.2-4.33-3.36a8.09 8.09 0 0 1-1.94-5 35.1 35.1 0 0 1 0-5c0-.57 1.08-3.53 1.48-6.32s-.4-3.81-.51-4a.86.86 0 0 1 .28-1.48c1.08-.51 5.41-5.58 5.41-5.58 4.67 11.79 7.34 12.7 13 14.86s11.62 1.77 15 0 4.44-5.35 3.93-5a4.64 4.64 0 0 1-1.77.68c-.34 0-.28-1.65-.28-2.11s-.4-1.59-.57-.34-1.31 1.88-2.68 2.56-2.28-.68-3-.68-1.77-.74-1.54-3.13-.57-3.53-1.31-3.64-1.25 1.14-2.16.63-.17-2.11.51-2.79a14.86 14.86 0 0 0 2-4c.28-.91.34-2.22-.46-1.88s-2.68 1.71-3.59 2.28-2.49-1-1.87-6.23c.79-6.71 1.87-3 4.14-3.68s1.42-3.76 1.54-7.06 3.42-3.59 4.21-3.81a49 49 0 0 0 7.29-4.9c1.82-1.54 8.88-8.83 10.93-9s2.62.8 3 1.77-1.65 3.64-2.79 5a58.34 58.34 0 0 1-5.75 6c-2.33 2-4.61.85-4 1.42a5.32 5.32 0 0 0 3.64 1.48c2.11.17 3.93-2.28 5.92-3.36a50 50 0 0 0 4.5-2.9c8-7.06 9.22-10.65 10.31-12.7s-.46-4.61-1-6-1.59-8.83-2.28-11.56-4.55-8.09-7.29-10.36-4.67-4.55-7.69-6.32c-2.62-1.54-2.64-.4-7.06-.85-5.32-.55-5.69-1.94-16.45-1.48-10.41.44-12.24 1.25-12.24 1.25 2.28-.11 2.28 1.08 3.76 1.08s3.7 1.25 5.92 2 1.31 4.73-.23 5.12-4.5 2.39-4.67 4.67 1.94 4.84 2.39 7.8-4 6.32-13.89 10.53-13.32 7.57-15.89 9.68-1.82 6.78-2.22 8.26-3.87 2.39-7.34 2.73-4.55-2.73-4.5-1.65.63 3.07 1.71 3.81 3.59.34 3.59.34.06.91-2.56 1.77-4.38-.51-3.81.11a5.8 5.8 0 0 0 3.53 1.77c1.37 0 3.13 1 5.41 1s2.85-2.73 2.73-1-1.08 2.51-2.56 3.3-6.38 4.9-7.57 7.52 1 4.84-.11 5.35-6 1.59-7.52 3.64-3.36 3.36-5.07 3.59a5.63 5.63 0 0 1-5-2c-1.54-1.65-1.59-3.13-1.82-1.82a18.7 18.7 0 0 0 .74 6c.51 1.94 3.19 3 1.08 3.25s-5.81-2.11-4.5.17c3.07 6.49 3.53 4.84 5.81 5.35a28.29 28.29 0 0 0 6.26.23c.8 3.19 2.73 6.26 2.73 7.4s-.11 1.59 1.2 4.78 2 3.47 1.65 8.2 4.73 5 6.89 4.84 3.13 2.33 4.38 6.26 4.38 6 6.6 6 2.79-3 4.78-3.07 1.29 4.93 5.24 7.4c2.57 1.6 2.66 3.59 6.6 3.59 2.73 0 2.22-.34 3.64-1.14s2.85-3.87 2.56-3.42-1.71.51-2.28.91-2.28-.06-3.93-.68-3.36-4.27-4-6.15.4-3.87 4.73-1.48 11.08 3.09 13.51 3.09a98.3 98.3 0 0 0 11.54-.84c2.43-.46 11.16-4.25 14.35-7.29s5.16-2.88 8-4.86c1.8-1.23 3.46-6 5.56-12 1.43-4.1.54-8.24-.74-13-3.4-12.8-8.98-13.43-8.98-13.43z"/>
</svg>
